<svg preserveAspectRatio="none" width="100%" height="100%" overflow="visible" style="display: block;" viewBox="0 0 147.293 147.293" fill="none" xmlns="http://www.w3.org/2000/svg">
<g id="1">
<g id="Star 1" filter="url(#filter0_f_0_18)">
<path d="M75.8371 38.4504C80.8084 28.466 83.294 23.4738 85.2412 22.8676C87.0438 22.3064 89.0079 22.8594 90.2527 24.2788C91.5975 25.8121 91.1128 31.3678 90.1435 42.4791V42.4791C89.8148 46.2462 89.6505 48.1297 90.32 49.3822C90.9485 50.558 92.0399 51.4177 93.3303 51.7534C94.7047 52.1109 96.4974 51.51 100.083 50.3082V50.3082C110.658 46.7633 115.946 44.9909 117.751 45.9392C119.423 46.817 120.42 48.5968 120.297 50.4807C120.164 52.5158 115.892 56.1016 107.35 63.273V63.273C104.454 65.7044 103.006 66.9201 102.594 68.279C102.207 69.555 102.371 70.9346 103.046 72.0844C103.765 73.309 105.457 74.1517 108.842 75.8371V75.8371C118.827 80.8084 123.819 83.294 124.425 85.2412C124.986 87.0438 124.433 89.0079 123.014 90.2527C121.48 91.5975 115.925 91.1128 104.814 90.1435V90.1435C101.046 89.8148 99.1628 89.6505 97.9104 90.32C96.7345 90.9485 95.8749 92.0399 95.5392 93.3303C95.1817 94.7047 95.7826 96.4974 96.9844 100.083V100.083C100.529 110.658 102.302 115.946 101.353 117.751C100.476 119.423 98.6958 120.42 96.8119 120.297C94.7767 120.164 91.191 115.892 84.0196 107.35V107.35C81.5882 104.454 80.3725 103.006 79.0136 102.594C77.7376 102.207 76.358 102.371 75.2082 103.046C73.9836 103.765 73.1409 105.457 71.4555 108.842V108.842C66.4842 118.827 63.9986 123.819 62.0513 124.425C60.2487 124.986 58.2847 124.433 57.0399 123.014C55.6951 121.48 56.1798 115.925 57.1491 104.814V104.814C57.4778 101.046 57.6421 99.1628 56.9726 97.9104C56.3441 96.7345 55.2527 95.8749 53.9623 95.5392C52.5879 95.1817 50.7952 95.7826 47.2099 96.9844V96.9844C36.6347 100.529 31.3471 102.302 29.5414 101.353C27.87 100.476 26.8723 98.6958 26.9957 96.8119C27.129 94.7767 31.4001 91.191 39.9425 84.0196V84.0196C42.8386 81.5882 44.2867 80.3725 44.6989 79.0136C45.0859 77.7376 44.9221 76.358 44.247 75.2082C43.5279 73.9836 41.8354 73.1409 38.4504 71.4555V71.4555C28.466 66.4842 23.4738 63.9986 22.8676 62.0513C22.3064 60.2487 22.8594 58.2847 24.2788 57.0399C25.8121 55.6951 31.3678 56.1798 42.4791 57.1491V57.1491C46.2462 57.4778 48.1297 57.6421 49.3822 56.9726C50.558 56.3441 51.4177 55.2527 51.7534 53.9623C52.1109 52.5879 51.51 50.7952 50.3082 47.2099V47.2099C46.7633 36.6347 44.9909 31.3471 45.9392 29.5414C46.817 27.87 48.5968 26.8723 50.4807 26.9957C52.5158 27.129 56.1016 31.4001 63.273 39.9425V39.9425C65.7044 42.8386 66.9201 44.2867 68.279 44.6989C69.555 45.0859 70.9346 44.9221 72.0844 44.247C73.309 43.5279 74.1517 41.8354 75.8371 38.4504V38.4504Z" fill="url(#paint0_linear_0_18)"/>
</g>
</g>
<defs>
<filter id="filter0_f_0_18" x="21.4144" y="21.4144" width="104.464" height="104.464" filterUnits="userSpaceOnUse" color-interpolation-filters="sRGB">
<feFlood flood-opacity="0" result="BackgroundImageFix"/>
<feBlend mode="normal" in="SourceGraphic" in2="BackgroundImageFix" result="shape"/>
<feGaussianBlur stdDeviation="0.618522" result="effect1_foregroundBlur_0_18"/>
</filter>
<linearGradient id="paint0_linear_0_18" x1="70.4" y1="46.4858" x2="89.0148" y2="128.981" gradientUnits="userSpaceOnUse">
<stop stop-color="#51E5FF"/>
<stop offset="1" stop-color="#AFFFF7"/>
</linearGradient>
</defs>
</svg>
