<svg preserveAspectRatio="none" width="100%" height="100%" overflow="visible" style="display: block;" viewBox="0 0 138.01 138.01" fill="none" xmlns="http://www.w3.org/2000/svg">
<g id="3">
<g id="Star 1" filter="url(#filter0_f_0_16)">
<path d="M61.6955 23.9211C63.8971 16.7163 64.9979 13.114 66.6744 12.1769C68.1228 11.3673 69.8876 11.3673 71.3359 12.1769C73.0124 13.114 74.1132 16.7164 76.3148 23.9212L83.9679 48.9664C84.4024 50.3883 84.6197 51.0992 85.0122 51.6856C85.3597 52.2047 85.8056 52.6507 86.3248 52.9982C86.9111 53.3907 87.6221 53.6079 89.044 54.0424L114.089 61.6955C121.294 63.8971 124.896 64.9979 125.833 66.6744C126.643 68.1228 126.643 69.8876 125.833 71.3359C124.896 73.0124 121.294 74.1132 114.089 76.3148L89.044 83.9679C87.6221 84.4024 86.9111 84.6197 86.3248 85.0122C85.8056 85.3597 85.3597 85.8056 85.0122 86.3248C84.6197 86.9111 84.4024 87.6221 83.9679 89.044L76.3148 114.089C74.1132 121.294 73.0124 124.896 71.3359 125.833C69.8876 126.643 68.1228 126.643 66.6744 125.833C64.9979 124.896 63.8971 121.294 61.6955 114.089L54.0424 89.044C53.6079 87.6221 53.3907 86.9111 52.9982 86.3248C52.6507 85.8056 52.2047 85.3597 51.6856 85.0122C51.0992 84.6197 50.3883 84.4024 48.9664 83.9679L23.9211 76.3148C16.7163 74.1132 13.114 73.0124 12.1769 71.3359C11.3673 69.8876 11.3673 68.1228 12.1769 66.6744C13.114 64.9979 16.7164 63.8971 23.9212 61.6955L48.9664 54.0424C50.3883 53.6079 51.0992 53.3907 51.6856 52.9982C52.2047 52.6507 52.6507 52.2047 52.9982 51.6856C53.3907 51.0992 53.6079 50.3883 54.0424 48.9664L61.6955 23.9211Z" fill="url(#paint0_linear_0_16)"/>
</g>
</g>
<defs>
<filter id="filter0_f_0_16" x="10.3326" y="10.3326" width="117.345" height="117.345" filterUnits="userSpaceOnUse" color-interpolation-filters="sRGB">
<feFlood flood-opacity="0" result="BackgroundImageFix"/>
<feBlend mode="normal" in="SourceGraphic" in2="BackgroundImageFix" result="shape"/>
<feGaussianBlur stdDeviation="0.618522" result="effect1_foregroundBlur_0_16"/>
</filter>
<linearGradient id="paint0_linear_0_16" x1="59.1792" y1="45.3335" x2="99.0434" y2="166.692" gradientUnits="userSpaceOnUse">
<stop stop-color="#434BFF"/>
<stop offset="1" stop-color="#7898FF"/>
</linearGradient>
</defs>
</svg>
