<svg preserveAspectRatio="none" width="100%" height="100%" overflow="visible" style="display: block;" viewBox="0 0 138.01 138.01" fill="none" xmlns="http://www.w3.org/2000/svg">
<g id="2">
<g id="Star 1" filter="url(#filter0_f_0_14)">
<path d="M61.6945 24.0239C63.8957 16.7918 64.9963 13.1758 66.6739 12.2371C68.1233 11.4261 69.8898 11.4261 71.3392 12.2371C73.0168 13.1758 74.1174 16.7918 76.3186 24.0239L83.9217 49.0035C84.3557 50.4295 84.5727 51.1425 84.9658 51.7304C85.3139 52.2509 85.7609 52.6978 86.2813 53.0459C86.8692 53.439 87.5822 53.656 89.0082 54.0901L113.988 61.6931C121.22 63.8943 124.836 64.9949 125.775 66.6726C126.586 68.1219 126.586 69.8884 125.775 71.3378C124.836 73.0155 121.22 74.1161 113.988 76.3173L89.0082 83.9203C87.5822 84.3543 86.8692 84.5713 86.2813 84.9645C85.7609 85.3125 85.3139 85.7595 84.9658 86.28C84.5727 86.8679 84.3557 87.5809 83.9217 89.0068L76.3187 113.986C74.1174 121.219 73.0168 124.835 71.3392 125.773C69.8898 126.584 68.1233 126.584 66.6739 125.773C64.9963 124.835 63.8957 121.219 61.6945 113.986L54.0914 89.0068C53.6574 87.5809 53.4404 86.8679 53.0473 86.28C52.6992 85.7595 52.2522 85.3125 51.7318 84.9645C51.1439 84.5713 50.4309 84.3543 49.0049 83.9203L24.0253 76.3173C16.7932 74.1161 13.1772 73.0155 12.2384 71.3378C11.4275 69.8884 11.4275 68.1219 12.2384 66.6726C13.1772 64.9949 16.7932 63.8943 24.0252 61.6931L49.0049 54.0901C50.4309 53.656 51.1439 53.439 51.7318 53.0459C52.2522 52.6978 52.6992 52.2509 53.0473 51.7304C53.4404 51.1425 53.6574 50.4295 54.0914 49.0035L61.6945 24.0239Z" fill="url(#paint0_linear_0_14)"/>
</g>
</g>
<defs>
<filter id="filter0_f_0_14" x="10.3932" y="10.3918" width="117.227" height="117.227" filterUnits="userSpaceOnUse" color-interpolation-filters="sRGB">
<feFlood flood-opacity="0" result="BackgroundImageFix"/>
<feBlend mode="normal" in="SourceGraphic" in2="BackgroundImageFix" result="shape"/>
<feGaussianBlur stdDeviation="0.618522" result="effect1_foregroundBlur_0_14"/>
</filter>
<linearGradient id="paint0_linear_0_14" x1="59.1806" y1="45.3335" x2="99.0448" y2="166.692" gradientUnits="userSpaceOnUse">
<stop stop-color="#434BFF"/>
<stop offset="1" stop-color="#7898FF"/>
</linearGradient>
</defs>
</svg>
