<svg preserveAspectRatio="none" width="100%" height="100%" overflow="visible" style="display: block;" viewBox="0 0 416 84" fill="none" xmlns="http://www.w3.org/2000/svg">
<g id="DESIGN">
<path id="Vector" d="M373.555 1.17645L394.777 55.7647H395.489V1.17645H416V82.8235H386.952L363.241 24.7059H362.529V82.8235H341.781V1.17645H373.555Z" fill="var(--fill-0, white)"/>
<path id="Vector_2" d="M257.102 42C257.102 26.9412 260.619 16.1961 267.653 9.76471C274.767 3.2549 285.121 0 298.716 0C302.747 0 306.857 0.274509 311.046 0.823531C315.235 1.29412 318.594 1.96079 321.124 2.82353V20.9412C314.801 18.7451 307.924 17.6471 300.494 17.6471C295.515 17.6471 291.523 18.4314 288.52 20C285.595 21.4902 283.461 24 282.118 27.5294C280.774 31.0588 280.102 35.8823 280.102 42C280.102 48.5882 280.655 53.6078 281.762 57.0588C282.869 60.5098 284.805 62.9804 287.571 64.4706C290.338 65.8823 294.329 66.5882 299.546 66.5882C302.707 66.5882 305 66.4706 306.422 66.2353V51.6471H293.499V34.2353H325.748V80.2353C322.507 81.2549 318.318 82.1176 313.18 82.8235C308.122 83.6078 303.182 84 298.36 84C289.113 84 281.485 82.8235 275.478 80.4706C269.55 78.1176 265.006 73.8823 261.844 67.7647C258.682 61.647 257.102 53.0588 257.102 42Z" fill="var(--fill-0, white)"/>
<path id="Vector_3" d="M242.356 1.17645V82.8235H221.371V1.17645H242.356Z" fill="var(--fill-0, white)"/>
<path id="Vector_4" d="M150.233 81.1765V63.1765C153 64.0392 156.517 64.7843 160.785 65.4118C165.132 66.0392 169.203 66.3529 172.997 66.3529C176.474 66.3529 179.083 66.1176 180.822 65.6471C182.64 65.098 183.904 64.2745 184.616 63.1765C185.327 62 185.683 60.3529 185.683 58.2353C185.683 56.5098 185.366 55.1373 184.734 54.1176C184.102 53.0196 182.837 52.0392 180.94 51.1765C179.043 50.3137 176.198 49.451 172.404 48.5882C166.318 47.1765 161.694 45.5686 158.532 43.7647C155.371 41.9608 153.158 39.6078 151.893 36.7059C150.628 33.7255 149.996 29.7255 149.996 24.7059C149.996 15.9216 152.644 9.60784 157.94 5.7647C163.235 1.92157 170.981 0 181.177 0C189.555 0 196.63 0.980394 202.399 2.94118V19.7647C200.502 19.0588 197.459 18.4314 193.27 17.8824C189.081 17.2549 185.366 16.9412 182.126 16.9412C177.858 16.9412 174.815 17.4902 172.997 18.5882C171.179 19.6078 170.27 21.4118 170.27 24C170.27 25.5686 170.586 26.7843 171.218 27.6471C171.851 28.5098 173.036 29.2941 174.775 30C176.593 30.7059 179.399 31.5294 183.193 32.4706C189.911 34.1176 194.93 36.0392 198.25 38.2353C201.57 40.3529 203.783 42.9804 204.889 46.1176C206.075 49.1765 206.668 53.4118 206.668 58.8235C206.668 67.2157 204.138 73.5294 199.08 77.7647C194.1 81.9216 185.762 84 174.064 84C169.717 84 165.409 83.7255 161.141 83.1765C156.952 82.6274 153.316 81.9608 150.233 81.1765Z" fill="var(--fill-0, white)"/>
<path id="Vector_5" d="M138.448 82.8235H85.2148V1.17645H137.381V19.1764H106.2V32.5882H134.891V49.8823H106.2V64.8235H138.448V82.8235Z" fill="var(--fill-0, white)"/>
<path id="Vector_6" d="M70.3059 42C70.3059 56.9804 66.8676 67.5294 59.9912 73.647C53.1147 79.7647 43.1162 82.8235 29.9956 82.8235H0V1.17645H29.9956C38.9271 1.17645 46.2778 2.27449 52.0477 4.47056C57.8176 6.66664 62.2833 10.7451 65.4449 16.7059C68.6855 22.6666 70.3059 31.098 70.3059 42ZM28.81 65.0588C33.7104 65.0588 37.5834 64.3921 40.4288 63.0588C43.2743 61.647 45.3293 59.2941 46.5939 56C47.8586 52.7058 48.4909 48.0392 48.4909 42C48.4909 35.7255 47.819 30.9019 46.4754 27.5294C45.2107 24.1568 43.1557 21.8431 40.3103 20.5882C37.5439 19.2549 33.7104 18.5882 28.81 18.5882H20.9851V65.0588H28.81Z" fill="var(--fill-0, white)"/>
</g>
</svg>
