<svg preserveAspectRatio="none" width="100%" height="100%" overflow="visible" style="display: block;" viewBox="0 0 178.514 178.514" fill="none" xmlns="http://www.w3.org/2000/svg">
<g id="2">
<g id="Star 1" filter="url(#filter0_f_0_8)">
<path d="M102.735 61.9875C110.019 55.702 113.661 52.5592 115.412 52.7262C117.033 52.8807 118.412 53.9756 118.929 55.5198C119.487 57.188 117.249 61.4462 112.773 69.9626V69.9626C111.256 72.8499 110.497 74.2936 110.612 75.5132C110.72 76.6582 111.302 77.7061 112.216 78.4033C113.19 79.146 114.817 79.2657 118.07 79.505V79.505C127.665 80.2109 132.463 80.5639 133.583 81.9203C134.62 83.176 134.82 84.9246 134.094 86.3822C133.309 87.9567 128.716 89.3853 119.529 92.2423V92.2423C116.414 93.2109 114.857 93.6952 114.076 94.6389C113.342 95.5249 113.013 96.6771 113.167 97.8169C113.33 99.0309 114.396 100.266 116.527 102.735V102.735C122.812 110.019 125.955 113.661 125.788 115.412C125.634 117.033 124.539 118.412 122.994 118.929C121.326 119.487 117.068 117.249 108.552 112.773V112.773C105.664 111.256 104.221 110.497 103.001 110.612C101.856 110.72 100.808 111.302 100.111 112.216C99.3682 113.19 99.2486 114.817 99.0092 118.07V118.07C98.3033 127.665 97.9503 132.463 96.5939 133.583C95.3383 134.62 93.5897 134.82 92.1321 134.094C90.5575 133.309 89.129 128.716 86.272 119.529V119.529C85.3033 116.414 84.819 114.857 83.8753 114.076C82.9893 113.342 81.8371 113.013 80.6973 113.166C79.4833 113.33 78.2486 114.396 75.7791 116.527V116.527C68.4952 122.812 64.8533 125.955 63.102 125.788C61.4808 125.634 60.1027 124.539 59.5856 122.994C59.027 121.326 61.265 117.068 65.7409 108.552V108.552C67.2584 105.664 68.0172 104.221 67.9022 103.001C67.7942 101.856 67.2126 100.808 66.2979 100.111C65.3237 99.3682 63.6972 99.2486 60.4442 99.0092V99.0092C50.8491 98.3033 46.0516 97.9503 44.9313 96.5939C43.8943 95.3383 43.694 93.5897 44.4203 92.1321C45.2049 90.5575 49.7984 89.129 58.9854 86.272V86.272C62.1001 85.3033 63.6574 84.819 64.4385 83.8753C65.1718 82.9893 65.5014 81.8371 65.3477 80.6973C65.184 79.4833 64.1185 78.2486 61.9875 75.7791V75.7791C55.702 68.4952 52.5592 64.8533 52.7262 63.102C52.8807 61.4808 53.9756 60.1027 55.5198 59.5856C57.188 59.027 61.4462 61.265 69.9626 65.7409V65.7409C72.8499 67.2584 74.2936 68.0172 75.5132 67.9022C76.6582 67.7942 77.7061 67.2126 78.4033 66.2979C79.146 65.3237 79.2657 63.6972 79.505 60.4442V60.4442C80.2109 50.8491 80.5639 46.0516 81.9203 44.9314C83.176 43.8943 84.9246 43.694 86.3822 44.4203C87.9567 45.2049 89.3853 49.7984 92.2423 58.9854V58.9854C93.2109 62.1001 93.6952 63.6574 94.6389 64.4385C95.5249 65.1718 96.6771 65.5014 97.8169 65.3477C99.0309 65.184 100.266 64.1185 102.735 61.9875V61.9875Z" fill="url(#paint0_linear_0_8)"/>
</g>
</g>
<defs>
<filter id="filter0_f_0_8" x="42.9207" y="42.9207" width="92.6728" height="92.6728" filterUnits="userSpaceOnUse" color-interpolation-filters="sRGB">
<feFlood flood-opacity="0" result="BackgroundImageFix"/>
<feBlend mode="normal" in="SourceGraphic" in2="BackgroundImageFix" result="shape"/>
<feGaussianBlur stdDeviation="0.533534" result="effect1_foregroundBlur_0_8"/>
</filter>
<linearGradient id="paint0_linear_0_8" x1="95.7305" y1="66.5672" x2="83.0336" y2="138.403" gradientUnits="userSpaceOnUse">
<stop stop-color="#51E5FF"/>
<stop offset="1" stop-color="#AFFFF7"/>
</linearGradient>
</defs>
</svg>
