<svg preserveAspectRatio="none" width="100%" height="100%" overflow="visible" style="display: block;" viewBox="0 0 272.007 272.007" fill="none" xmlns="http://www.w3.org/2000/svg">
<g id="1">
<g id="Star 1" filter="url(#filter0_f_0_4)">
<path d="M163.089 77.2415C171.42 70.4735 175.585 67.0895 178.306 67.3156C180.656 67.5109 182.735 68.9127 183.798 71.0177C185.029 73.4542 183.455 78.585 180.308 88.8465L169.436 124.29C168.816 126.313 168.506 127.325 168.502 128.329C168.499 129.218 168.67 130.099 169.007 130.922C169.387 131.851 170.054 132.673 171.389 134.315L194.766 163.089C201.534 171.42 204.918 175.585 204.692 178.306C204.496 180.656 203.094 182.735 200.989 183.798C198.553 185.029 193.422 183.455 183.161 180.308L147.717 169.436C145.694 168.816 144.682 168.506 143.678 168.502C142.789 168.499 141.908 168.67 141.085 169.007C140.156 169.387 139.334 170.054 137.692 171.389L108.918 194.766C100.587 201.534 96.4217 204.918 93.7015 204.692C91.3516 204.496 89.2717 203.094 88.2088 200.989C86.9785 198.553 88.5522 193.422 91.6996 183.161L102.571 147.717C103.191 145.694 103.502 144.682 103.505 143.678C103.508 142.789 103.337 141.908 103 141.085C102.62 140.156 101.953 139.334 100.618 137.692L77.2415 108.918C70.4735 100.587 67.0895 96.4217 67.3156 93.7015C67.5109 91.3516 68.9127 89.2717 71.0177 88.2088C73.4542 86.9785 78.585 88.5522 88.8465 91.6996L124.29 102.571C126.313 103.191 127.325 103.502 128.329 103.505C129.218 103.508 130.099 103.337 130.922 103C131.851 102.62 132.673 101.953 134.315 100.618L163.089 77.2415Z" fill="url(#paint0_linear_0_4)"/>
</g>
</g>
<defs>
<filter id="filter0_f_0_4" x="65.5486" y="65.5486" width="140.91" height="140.91" filterUnits="userSpaceOnUse" color-interpolation-filters="sRGB">
<feFlood flood-opacity="0" result="BackgroundImageFix"/>
<feBlend mode="normal" in="SourceGraphic" in2="BackgroundImageFix" result="shape"/>
<feGaussianBlur stdDeviation="0.878197" result="effect1_foregroundBlur_0_4"/>
</filter>
<linearGradient id="paint0_linear_0_4" x1="166" y1="18" x2="93.8503" y2="274.853" gradientUnits="userSpaceOnUse">
<stop stop-color="#434BFF"/>
<stop offset="0.811208" stop-color="#7898FF"/>
</linearGradient>
</defs>
</svg>
