<svg preserveAspectRatio="none" width="100%" height="100%" overflow="visible" style="display: block;" viewBox="0 0 209.13 209.13" fill="none" xmlns="http://www.w3.org/2000/svg">
<g id="3">
<g id="Star 1" filter="url(#filter0_f_0_6)">
<path d="M92.0773 47.548C96.8043 29.5497 99.1678 20.5506 103.708 19.9724C104.277 19.9 104.853 19.9 105.422 19.9724C109.963 20.5506 112.326 29.5497 117.053 47.548V47.548C118.928 54.6847 119.865 58.2531 122.522 59.6416C122.878 59.8277 123.25 59.9817 123.634 60.102C126.494 60.9992 129.68 59.1387 136.052 55.4176V55.4176C152.121 46.0335 160.156 41.3414 163.776 44.1433C164.229 44.4943 164.636 44.9014 164.987 45.3549C167.789 48.9745 163.097 57.009 153.713 73.0782V73.0782C149.992 79.4501 148.131 82.636 149.028 85.4969C149.149 85.8803 149.303 86.2522 149.489 86.6083C150.877 89.2657 154.446 90.2029 161.582 92.0773V92.0773C179.581 96.8043 188.58 99.1678 189.158 103.708C189.23 104.277 189.23 104.853 189.158 105.422C188.58 109.963 179.581 112.326 161.582 117.053V117.053C154.446 118.928 150.877 119.865 149.489 122.522C149.303 122.878 149.149 123.25 149.028 123.634C148.131 126.494 149.992 129.68 153.713 136.052V136.052C163.097 152.121 167.789 160.156 164.987 163.776C164.636 164.229 164.229 164.636 163.776 164.987C160.156 167.789 152.121 163.097 136.052 153.713V153.713C129.68 149.992 126.494 148.131 123.634 149.028C123.25 149.149 122.878 149.303 122.522 149.489C119.865 150.877 118.928 154.446 117.053 161.582V161.582C112.326 179.581 109.963 188.58 105.422 189.158C104.853 189.23 104.277 189.23 103.708 189.158C99.1678 188.58 96.8043 179.581 92.0773 161.582V161.582C90.2029 154.446 89.2657 150.877 86.6083 149.489C86.2522 149.303 85.8803 149.149 85.4969 149.028C82.636 148.131 79.4501 149.992 73.0782 153.713V153.713C57.009 163.097 48.9745 167.789 45.3549 164.987C44.9014 164.636 44.4943 164.229 44.1433 163.776C41.3414 160.156 46.0335 152.121 55.4176 136.052V136.052C59.1387 129.68 60.9992 126.494 60.102 123.634C59.9817 123.25 59.8277 122.878 59.6416 122.522C58.2531 119.865 54.6847 118.928 47.548 117.053V117.053C29.5497 112.326 20.5506 109.963 19.9724 105.422C19.9 104.853 19.9 104.277 19.9724 103.708C20.5506 99.1678 29.5497 96.8043 47.548 92.0773V92.0773C54.6847 90.2029 58.2531 89.2657 59.6416 86.6083C59.8277 86.2522 59.9817 85.8803 60.102 85.4969C60.9992 82.636 59.1387 79.4501 55.4176 73.0782V73.0782C46.0335 57.009 41.3414 48.9744 44.1433 45.3549C44.4943 44.9014 44.9014 44.4943 45.3549 44.1433C48.9744 41.3414 57.009 46.0335 73.0782 55.4176V55.4176C79.4501 59.1387 82.636 60.9992 85.4969 60.102C85.8803 59.9817 86.2522 59.8277 86.6083 59.6416C89.2657 58.2531 90.2029 54.6847 92.0773 47.548V47.548Z" fill="url(#paint0_linear_0_6)"/>
</g>
</g>
<defs>
<filter id="filter0_f_0_6" x="18.1617" y="18.1617" width="172.807" height="172.807" filterUnits="userSpaceOnUse" color-interpolation-filters="sRGB">
<feFlood flood-opacity="0" result="BackgroundImageFix"/>
<feBlend mode="normal" in="SourceGraphic" in2="BackgroundImageFix" result="shape"/>
<feGaussianBlur stdDeviation="0.878197" result="effect1_foregroundBlur_0_6"/>
</filter>
<linearGradient id="paint0_linear_0_6" x1="89.6757" y1="68.6949" x2="146.865" y2="174.275" gradientUnits="userSpaceOnUse">
<stop stop-color="#51E5FF"/>
<stop offset="1" stop-color="#AFFFF7"/>
</linearGradient>
</defs>
</svg>
