<svg preserveAspectRatio="none" width="100%" height="100%" overflow="visible" style="display: block;" viewBox="0 0 793.999 102" fill="none" xmlns="http://www.w3.org/2000/svg">
<g id="PORTFOLIO">
<path id="Vector" d="M703.094 50.9389C703.094 37.8118 704.84 27.5384 708.333 20.1187C711.826 12.6039 716.829 7.37212 723.342 4.42327C729.95 1.47442 738.351 0 748.546 0C758.836 0 767.237 1.47442 773.751 4.42327C780.358 7.37212 785.361 12.6039 788.76 20.1187C792.252 27.5384 793.999 37.8118 793.999 50.9389C793.999 64.1612 792.252 74.4821 788.76 81.9018C785.361 89.3215 780.358 94.5057 773.751 97.4546C767.237 100.403 758.836 101.878 748.546 101.878C738.351 101.878 729.95 100.403 723.342 97.4546C716.829 94.5057 711.826 89.3215 708.333 81.9018C704.84 74.4821 703.094 64.1612 703.094 50.9389ZM748.546 80.903C753.833 80.903 757.845 79.9993 760.582 78.192C763.32 76.2895 765.208 73.2455 766.246 69.0601C767.284 64.8746 767.803 58.8342 767.803 50.9389C767.803 43.0436 767.284 36.9557 766.246 32.6751C765.208 28.3945 763.32 25.303 760.582 23.4005C757.845 21.498 753.833 20.5468 748.546 20.5468C743.354 20.5468 739.39 21.498 736.652 23.4005C733.915 25.303 732.027 28.3945 730.988 32.6751C729.95 36.9557 729.431 43.0436 729.431 50.9389C729.431 58.8342 729.95 64.8746 730.988 69.0601C732.027 73.2455 733.915 76.2895 736.652 78.192C739.39 79.9993 743.354 80.903 748.546 80.903Z" fill="url(#paint0_linear_0_4)"/>
<path id="Vector_2" d="M685.492 1.42705V100.451H660.43V1.42705H685.492Z" fill="url(#paint1_linear_0_4)"/>
<path id="Vector_3" d="M647.239 100.451H584.512V1.42705H609.574V78.6202H647.239V100.451Z" fill="url(#paint2_linear_0_4)"/>
<path id="Vector_4" d="M475.902 50.9389C475.902 37.8118 477.649 27.5384 481.141 20.1187C484.634 12.6039 489.637 7.37212 496.151 4.42327C502.759 1.47442 511.16 0 521.355 0C531.644 0 540.046 1.47442 546.559 4.42327C553.167 7.37212 558.17 12.6039 561.568 20.1187C565.061 27.5384 566.807 37.8118 566.807 50.9389C566.807 64.1612 565.061 74.4821 561.568 81.9018C558.17 89.3215 553.167 94.5057 546.559 97.4546C540.046 100.403 531.644 101.878 521.355 101.878C511.16 101.878 502.759 100.403 496.151 97.4546C489.637 94.5057 484.634 89.3215 481.141 81.9018C477.649 74.4821 475.902 64.1612 475.902 50.9389ZM521.355 80.903C526.641 80.903 530.653 79.9993 533.391 78.192C536.128 76.2895 538.016 73.2455 539.054 69.0601C540.093 64.8746 540.612 58.8342 540.612 50.9389C540.612 43.0436 540.093 36.9557 539.054 32.6751C538.016 28.3945 536.128 25.303 533.391 23.4005C530.653 21.498 526.641 20.5468 521.355 20.5468C516.163 20.5468 512.198 21.498 509.461 23.4005C506.723 25.303 504.835 28.3945 503.797 32.6751C502.759 36.9557 502.239 43.0436 502.239 50.9389C502.239 58.8342 502.759 64.8746 503.797 69.0601C504.835 73.2455 506.723 76.2895 509.461 78.192C512.198 79.9993 516.163 80.903 521.355 80.903Z" fill="url(#paint3_linear_0_4)"/>
<path id="Vector_5" d="M426.492 42.5206H460.759V64.2089H426.492V100.451H401.43V1.42705H463.732V23.258H426.492V42.5206Z" fill="url(#paint4_linear_0_4)"/>
<path id="Vector_6" d="M364.253 23.5434V100.451H339.332V23.5434H314.836V1.42705H388.749V23.5434H364.253Z" fill="url(#paint5_linear_0_4)"/>
<path id="Vector_7" d="M266.836 65.9211H258.906V100.451H233.844V1.42705H270.8C283.827 1.42705 293.409 3.94784 299.545 8.98941C305.68 14.031 308.748 22.2592 308.748 33.6741C308.748 41.7596 307.285 48.1805 304.359 52.9367C301.527 57.6929 297.09 61.1174 291.049 63.2101L317.952 100.451H288.358L266.836 65.9211ZM266.553 47.5147C273.066 47.5147 277.597 46.5634 280.146 44.6609C282.695 42.6633 283.969 39.001 283.969 33.6741C283.969 30.2496 283.403 27.6337 282.27 25.8264C281.231 24.019 279.438 22.7824 276.889 22.1165C274.435 21.3555 270.989 20.975 266.553 20.975H258.906V47.5147H266.553Z" fill="url(#paint6_linear_0_4)"/>
<path id="Vector_8" d="M88.9766 51C88.9766 37.8571 91.5033 27.5714 96.5568 20.1429C101.61 12.619 108.849 7.38096 118.273 4.42857C127.834 1.47619 139.989 0 154.74 0C169.627 0 181.783 1.47619 191.207 4.42857C200.768 7.38096 208.006 12.619 212.923 20.1429C217.977 27.5714 220.504 37.8571 220.504 51C220.504 64.2381 217.977 74.5714 212.923 82C208.006 89.4286 200.768 94.619 191.207 97.5714C181.783 100.524 169.627 102 154.74 102C139.989 102 127.834 100.524 118.273 97.5714C108.849 94.619 101.61 89.4286 96.5568 82C91.5033 74.5714 88.9766 64.2381 88.9766 51ZM154.74 81C162.389 81 168.193 80.0952 172.154 78.2857C176.115 76.381 178.847 73.3333 180.349 69.1429C181.851 64.9524 182.603 58.9048 182.603 51C182.603 43.0952 181.851 37 180.349 32.7143C178.847 28.4286 176.115 25.3333 172.154 23.4286C168.193 21.5238 162.389 20.5714 154.74 20.5714C147.228 20.5714 141.492 21.5238 137.531 23.4286C133.57 25.3333 130.838 28.4286 129.336 32.7143C127.834 37 127.083 43.0952 127.083 51C127.083 58.9048 127.834 64.9524 129.336 69.1429C130.838 73.3333 133.57 76.381 137.531 78.2857C141.492 80.0952 147.228 81 154.74 81Z" fill="url(#paint7_linear_0_4)"/>
<path id="Vector_9" d="M75.7542 36.079C75.7542 45.0207 74.4327 52.1074 71.7895 57.3393C69.1464 62.4759 64.9457 66.1858 59.1874 68.4688C53.5236 70.7517 45.8301 71.8932 36.1072 71.8932H25.0626V100.573H0V1.549H36.1072C46.2077 1.549 54.0899 2.69049 59.7538 4.97347C65.5121 7.25644 69.6184 10.9187 72.0727 15.9603C74.5271 20.9067 75.7542 27.613 75.7542 36.079ZM32.5672 51.7745C39.1751 51.7745 43.7534 50.7281 46.3021 48.6354C48.9453 46.4476 50.2668 42.4523 50.2668 36.6498C50.2668 30.7521 48.9453 26.7093 46.3021 24.5215C43.659 22.2385 39.0807 21.097 32.5672 21.097H25.0626V51.7745H32.5672Z" fill="url(#paint8_linear_0_4)"/>
</g>
<defs>
<linearGradient id="paint0_linear_0_4" x1="762.509" y1="23.0438" x2="772.277" y2="218.294" gradientUnits="userSpaceOnUse">
<stop stop-color="white"/>
<stop offset="0.721394" stop-color="#4B7CF2"/>
</linearGradient>
<linearGradient id="paint1_linear_0_4" x1="676.81" y1="23.8254" x2="709.357" y2="208.34" gradientUnits="userSpaceOnUse">
<stop stop-color="white"/>
<stop offset="0.721394" stop-color="#4B7CF2"/>
</linearGradient>
<linearGradient id="paint2_linear_0_4" x1="625.51" y1="23.8254" x2="638.852" y2="213.141" gradientUnits="userSpaceOnUse">
<stop stop-color="white"/>
<stop offset="0.721394" stop-color="#4B7CF2"/>
</linearGradient>
<linearGradient id="paint3_linear_0_4" x1="535.317" y1="23.0438" x2="545.086" y2="218.294" gradientUnits="userSpaceOnUse">
<stop stop-color="white"/>
<stop offset="0.721394" stop-color="#4B7CF2"/>
</linearGradient>
<linearGradient id="paint4_linear_0_4" x1="442.15" y1="23.8254" x2="455.582" y2="213.128" gradientUnits="userSpaceOnUse">
<stop stop-color="white"/>
<stop offset="0.721394" stop-color="#4B7CF2"/>
</linearGradient>
<linearGradient id="paint5_linear_0_4" x1="363.145" y1="23.8254" x2="374.484" y2="213.403" gradientUnits="userSpaceOnUse">
<stop stop-color="white"/>
<stop offset="0.721394" stop-color="#4B7CF2"/>
</linearGradient>
<linearGradient id="paint6_linear_0_4" x1="288.816" y1="23.8254" x2="298.789" y2="213.557" gradientUnits="userSpaceOnUse">
<stop stop-color="white"/>
<stop offset="0.721394" stop-color="#4B7CF2"/>
</linearGradient>
<linearGradient id="paint7_linear_0_4" x1="174.942" y1="23.0715" x2="181.718" y2="218.81" gradientUnits="userSpaceOnUse">
<stop stop-color="white"/>
<stop offset="0.721394" stop-color="#4B7CF2"/>
</linearGradient>
<linearGradient id="paint8_linear_0_4" x1="49.5124" y1="23.9474" x2="60.5774" y2="213.558" gradientUnits="userSpaceOnUse">
<stop stop-color="white"/>
<stop offset="0.721394" stop-color="#4B7CF2"/>
</linearGradient>
</defs>
</svg>
