<svg preserveAspectRatio="none" width="100%" height="100%" overflow="visible" style="display: block;" viewBox="0 0 364 110" fill="none" xmlns="http://www.w3.org/2000/svg">
<g id="2026">
<path id="Vector" d="M308.54 88.0334C298.701 88.0334 291.069 85.069 285.645 79.1401C280.221 73.1481 277.508 64.7909 277.508 54.0684C277.508 42.3999 280.883 33.8534 287.632 28.4291C294.444 23.0048 303.936 20.2927 316.109 20.2927H354.237V32.592H317.15C310.275 32.592 304.819 33.7588 300.782 36.0925C296.809 38.3632 294.349 42.3683 293.403 48.108H337.586C344.587 48.108 350.106 49.8741 354.142 53.4062C358.179 56.8752 360.198 61.7003 360.198 67.8815C360.198 74.2519 358.179 79.2032 354.142 82.7353C350.106 86.2674 344.587 88.0334 337.586 88.0334H308.54ZM309.581 75.7341H334.653C338.122 75.7341 340.803 75.1034 342.695 73.8419C344.587 72.5174 345.533 70.5621 345.533 67.9761C345.533 65.4532 344.587 63.561 342.695 62.2995C340.803 61.038 338.122 60.4073 334.653 60.4073H293.403C294.854 70.6252 300.246 75.7341 309.581 75.7341Z" fill="url(#paint0_linear_0_20)"/>
<path id="Vector_2" d="M190.619 87.9388V67.8815C190.619 61.5742 192.385 56.686 195.917 53.2169C199.449 49.7479 204.59 48.0134 211.339 48.0134H242.465C248.457 48.0134 251.453 45.4589 251.453 40.35C251.453 35.241 248.457 32.6866 242.465 32.6866H192.133V20.3872H245.398C251.958 20.3872 257.035 22.1533 260.631 25.6854C264.289 29.2175 266.118 34.1057 266.118 40.35C266.118 46.5942 264.289 51.4824 260.631 55.0145C257.035 58.5466 251.958 60.3127 245.398 60.3127H213.42C210.708 60.3127 208.658 61.0065 207.271 62.3941C205.946 63.7186 205.284 65.6109 205.284 68.0707V75.7341H264.32V87.9388H190.619Z" fill="url(#paint1_linear_0_20)"/>
<path id="Vector_3" d="M128.329 88.4119C116.156 88.4119 106.664 85.5421 99.8516 79.8024C93.1028 73.9996 89.7283 65.4216 89.7283 54.0684C89.7283 42.7783 93.1028 34.2634 99.8516 28.5237C106.664 22.721 116.156 19.8196 128.329 19.8196H140.629C152.865 19.8196 162.357 22.721 169.106 28.5237C175.855 34.2634 179.229 42.7783 179.229 54.0684C179.229 65.4216 175.855 73.9996 169.106 79.8024C162.357 85.5421 152.865 88.4119 140.629 88.4119H128.329ZM105.15 54.0684C105.15 60.9434 106.821 66.1785 110.164 69.7737L147.251 32.7812C144.981 32.3397 142.426 32.1189 139.588 32.1189H129.37C121.423 32.1189 115.399 33.8534 111.299 37.3225C107.2 40.7915 105.15 46.3735 105.15 54.0684ZM129.37 76.1126H139.588C147.535 76.1126 153.559 74.3781 157.658 70.909C161.758 67.3769 163.808 61.7634 163.808 54.0684C163.808 47.1934 162.105 41.9584 158.699 38.3632L121.517 75.4503C123.851 75.8918 126.469 76.1126 129.37 76.1126Z" fill="url(#paint2_linear_0_20)"/>
<path id="Vector_4" d="M2.83915 87.9388V67.8815C2.83915 61.5742 4.60521 56.686 8.13731 53.2169C11.6694 49.7479 16.8099 48.0134 23.5587 48.0134H54.6854C60.6774 48.0134 63.6734 45.4589 63.6734 40.35C63.6734 35.241 60.6774 32.6866 54.6854 32.6866H4.35291V20.3872H57.6184C64.178 20.3872 69.2554 22.1533 72.8506 25.6854C76.5088 29.2175 78.338 34.1057 78.338 40.35C78.338 46.5942 76.5088 51.4824 72.8506 55.0145C69.2554 58.5466 64.178 60.3127 57.6184 60.3127H25.6402C22.928 60.3127 20.8781 61.0065 19.4905 62.3941C18.166 63.7186 17.5037 65.6109 17.5037 68.0707V75.7341H76.5404V87.9388H2.83915Z" fill="url(#paint3_linear_0_20)"/>
</g>
<defs>
<linearGradient id="paint0_linear_0_20" x1="302.72" y1="-184.097" x2="302.72" y2="144.892" gradientUnits="userSpaceOnUse">
<stop offset="0.511769" stop-color="white"/>
<stop offset="0.919583" stop-color="#4B7CF2"/>
</linearGradient>
<linearGradient id="paint1_linear_0_20" x1="302.72" y1="-184.097" x2="302.72" y2="144.892" gradientUnits="userSpaceOnUse">
<stop offset="0.511769" stop-color="white"/>
<stop offset="0.919583" stop-color="#4B7CF2"/>
</linearGradient>
<linearGradient id="paint2_linear_0_20" x1="302.718" y1="-184.097" x2="302.718" y2="144.892" gradientUnits="userSpaceOnUse">
<stop offset="0.511769" stop-color="white"/>
<stop offset="0.919583" stop-color="#4B7CF2"/>
</linearGradient>
<linearGradient id="paint3_linear_0_20" x1="302.719" y1="-184.097" x2="302.719" y2="144.892" gradientUnits="userSpaceOnUse">
<stop offset="0.511769" stop-color="white"/>
<stop offset="0.919583" stop-color="#4B7CF2"/>
</linearGradient>
</defs>
</svg>
